<?xml version="1.0" encoding="utf-8"?>
<!-- Generator: Adobe Illustrator 19.0.0, SVG Export Plug-In . SVG Version: 6.00 Build 0)  -->
<svg version="1.1" id="Layer_1" xmlns="http://www.w3.org/2000/svg" xmlns:xlink="http://www.w3.org/1999/xlink" x="0px" y="0px"
	 viewBox="-432 135 500 500" style="enable-background:new -432 135 500 500;" xml:space="preserve">
<style type="text/css">
	.st0{fill:#FFFFFF;}
	.st1{opacity:0.21;enable-background:new    ;}
	.st2{fill:#414042;}
	.st3{fill:#D1D3D4;}
	.st4{font-family:'ArialMT';}
	.st5{font-size:6.0844px;}
	.st6{font-size:4.8578px;}
	.st7{font-size:5.7419px;}
	.st8{opacity:0.28;fill:#414042;enable-background:new    ;}
	.st9{fill:#27AAE1;}
</style>
<rect x="-432" y="135" class="st0" width="500" height="500"/>
<g id="Layer_3">
	<g id="Layer_4">
		<path id="blue-animate-2_1_" class="st1" d="M-300.9,380.4l-31.6-22.7c-2.8-2-2.8-5.6,0-7.6l24.6-17.7L-300.9,380.4z"/>
		<path id="blue-animate-1_1_" class="st1" d="M-194.6,255.6l-0.1,34.7l-5.7,4.1l-22.9,16.5l-14.2,10.1l-16.2,11.7l-7.7,5.5
			l-18.6,13.4l-3.1,2.2l2.5,1.8c-0.6,4.3-1.3,8.6-2,13h-0.6c-0.6-6.7-1.3-13.3-2-19.9s-1.4-13.2-2-19.7l-1.2-10.6l15.8-11.4
			l28.7-20.7L-199,254C-197.3,252.7-194.6,253.7-194.6,255.6z"/>
		<path id="blue-animate-3_1_" class="st1" d="M-203.8,450.2l-75.7-54.5h8.7l4.8-29.6l20.4,14.7l20.7,14.9l30.1,21.7v29.4
			C-194.6,450.7-200.2,452.8-203.8,450.2z"/>
		<path id="blue-animate-4_1_" class="st1" d="M-164.2,270.2h-18.3c-0.4,0-0.7,0.2-0.7,0.6v23.8l-3.1-2.2c-0.9-0.6-1.4-1.6-1.4-2.6
			l-0.1-34c0-1.5,2.1-2.3,3.5-1.3l20.5,14.8C-163.3,269.5-163.6,270.2-164.2,270.2z"/>
		<polygon id="blue-animate-5_1_" class="st1" points="-99.4,315.5 -99.4,354.8 -126.8,335.1 -148.8,319.3 -160.7,310.7 
			-160.7,294.1 -129.2,294.1 		"/>
		<path id="blue-animate-7_1_" class="st1" d="M-99.4,355v39.3l-79.2,57c-3.6,2.6-9.1,0.5-9.1-3.4v-28.1c0-0.8,0.4-1.6,1.2-2.1
			l30.5-21.9h36.8v-23.9h-3.6L-99.4,355z"/>
		<path id="blue-animate-6_1_" class="st1" d="M-45.7,354.1c0.6,0.4,0.6,1.2,0,1.7l0,0l-24.7,17.8c-0.2,0.2-0.6,0.3-0.9,0.3h-4.2
			c-0.7,0-1.3-0.5-1.3-1.1v-30.1c0-0.6,0.6-1.1,1.3-1.1h11.3c0.1,0,0.3,0,0.4,0c0.3,0,0.6,0.1,0.9,0.3L-45.7,354.1L-45.7,354.1z"/>
	</g>
</g>
<g id="Main-text">
	<path id="XMLID_10_" class="st2" d="M-198.6,269.2l-3.4,24.1l-14.3,101.4h-28.3l-2.6-14.9l-7.2-42.1c-0.3-2-0.7-4-1-6.1
		c-0.4-2.9-0.9-5.8-1.2-8.7c-0.7-4.9-1.3-9.7-1.8-14.4h-0.6c-0.6,4.6-1.2,9.4-1.9,14.4c-0.6,4.8-1.4,9.5-2.1,14.2
		c0,0.2-0.1,0.4-0.1,0.5l-4.5,27.4l-4.8,29.6h-27.8l-2.3-15.4l-7.1-48l-9.2-62.2h23.1l5.6,48.1l1.2,10.6c0.6,6.5,1.3,13.1,2,19.7
		s1.4,13.3,2,19.9h0.6c0.7-4.3,1.3-8.7,1.9-13c0.2-1.3,0.4-2.7,0.6-4c0.1-1,0.3-2,0.4-3c1-6.6,2-13.2,3-19.7l4-22l6.7-36.8h19.1
		l2.9,16.1l6.3,34.8l1.4,7.9c1,6.4,2,12.9,3,19.5s2,13.3,3,20.1h0.6c0.7-6.8,1.4-13.5,2.1-20c0.7-6.6,1.4-13.1,2.1-19.6l2.1-18.1
		l4.8-40.6h21.7L-198.6,269.2L-198.6,269.2z"/>
	<polygon id="XMLID_31_" class="st2" points="-120.9,370.9 -120.9,394.7 -184.8,394.7 -184.8,269.2 -122.4,269.2 -122.4,293.1 
		-162.3,293.1 -162.3,318.3 -128.4,318.3 -128.4,342 -162.3,342 -162.3,370.9 	"/>
	<path id="XMLID_9_" d="M-47.5,353c0.1,0.6,0.1,1.2,0.1,1.8l1.2-0.8L-47.5,353z M-101,354l0.1-0.1l-0.1-0.1V354z"/>
	<path id="XMLID_57_" class="st2" d="M-26.7,346.5c-0.9-3.3-2.2-6.1-3.8-8.6c-1.6-2.4-3.5-4.5-5.7-6.1c-2.1-1.6-4.5-2.8-7-3.6v-0.8
		c2-0.9,3.8-2.3,5.4-4.2s2.9-4.1,4.1-6.6c1.1-2.4,2-5.1,2.6-7.9s0.9-5.6,0.9-8.5c0-6-0.9-11-2.8-15c-1.9-4-4.5-7.2-7.8-9.6
		s-7.2-4.1-11.6-5.1s-9.3-1.4-14.4-1.4H-101v84.6l0.1,0.1l-0.1,0.2v40.7h37c5.4,0,10.4-0.7,15.1-2.2s8.8-3.7,12.3-6.7
		s6.3-6.8,8.3-11.5c2-4.6,3-10.1,3-16.6C-25.3,353.5-25.8,349.8-26.7,346.5z M-78.5,291.1h10.7c5.3,0,9.2,1,11.8,3.1
		s3.8,5.5,3.8,10.4c0,4.5-1.2,8.1-3.7,10.8c-2.5,2.7-6.5,4-12,4h-10.5L-78.5,291.1L-78.5,291.1z M-47.3,355.8
		c0,11.3-6.2,16.9-18.5,16.9h-12.7v-32.4h12.7c0.3,0,0.6,0,0.9,0c5.8,0.1,10.1,1.3,13,3.5c2.5,1.9,4,4.9,4.4,9l1.3,0.9l-1.2,0.8
		C-47.3,355.1-47.3,355.5-47.3,355.8z"/>
	<text id="text-5" transform="matrix(1 0 0 1 -209.6626 387.1299)" class="st3 st4 st5">HTML5</text>
	<text id="text-8" transform="matrix(1 0 0 1 -246.3379 274.7373)" class="st3 st4 st5">Vue.js</text>
	<text id="text-6" transform="matrix(1 0 0 1 -204.2539 347.9199)" class="st3 st4 st5">SCSS</text>
	<text id="text-16" transform="matrix(1 0 0 1 -209.3242 367.1865)" class="st3 st4 st5">CSS Grid</text>
	<text id="text-7" transform="matrix(1 0 0 1 -156.2549 265.2168)" class="st3 st4 st5">Greensock</text>
	<text id="text-15" transform="matrix(1 0 0 1 -118.0586 281.667)" class="st3 st4 st5">GSAP</text>
	<text id="text-14" transform="matrix(1 0 0 1 -291.3794 288.8379)" class="st3 st4 st6">Nuxt JS</text>
	<text id="text-13" transform="matrix(1 0 0 1 -156.1426 362.3418)" class="st3 st4 st5">Laravel/ Lumen</text>
	<text id="text-12" transform="matrix(1 0 0 1 -204.2544 329.5537)" class="st3 st4 st5">T-SQL</text>
	<text id="text-11" transform="matrix(1 0 0 1 -202.2261 310.2861)" class="st3 st4 st5">.Net</text>
	<text id="text-2" transform="matrix(1 0 0 1 -151.8613 353.666)" class="st3 st4 st5">REST API</text>
	<text id="text-10" transform="matrix(1 0 0 1 -75.4824 300.9346)" class="st3 st4 st5">Vuetify</text>
	<text id="text-4" transform="matrix(1 0 0 1 -75.8193 311.751)" class="st3 st4 st5">Bootsrap</text>
	<text id="text-9" transform="matrix(1 0 0 1 -261.2104 356.0322)" class="st3 st4 st5">Git</text>
	<text id="text-3" transform="matrix(1 0 0 1 -292.999 275.4438)" class="st3 st4 st7">npm/yarn</text>
	<text id="text-1" transform="matrix(1 0 0 1 -208.085 400.9893)" class="st3 st4 st5">{ code }</text>
	<path id="XMLID_7_" class="st8" d="M-196.6,271.5l-3.4,24.1L-214.3,397h-28.3l-2.6-14.9l-7.2-42.1c-0.3-2-0.7-4-1-6.1
		c-0.4-2.9-0.9-5.8-1.2-8.7c-0.7-4.9-1.3-9.7-1.8-14.4h-0.6c-0.6,4.6-1.2,9.4-1.9,14.4c-0.6,4.8-1.4,9.5-2.1,14.2
		c0,0.2-0.1,0.4-0.1,0.5l-4.5,27.4l-4.8,29.6h-27.8l-2.3-15.4l-7.1-48l-9.2-62.2h23.1l5.6,48.1l1.2,10.6c0.6,6.5,1.3,13.1,2,19.7
		s1.4,13.3,2,19.9h0.6c0.7-4.3,1.3-8.7,1.9-13c0.2-1.3,0.4-2.7,0.6-4c0.1-1,0.3-2,0.4-3c1-6.6,2-13.2,3-19.7l4-22l6.7-36.8h19.1
		l2.9,16.1l6.3,34.8l1.4,7.9c1,6.4,2,12.9,3,19.5s2,13.3,3,20.1h0.6c0.7-6.8,1.4-13.5,2.1-20c0.7-6.6,1.4-13.1,2.1-19.6l2.1-18.1
		l4.8-40.6h21.7L-196.6,271.5L-196.6,271.5z"/>
	<polygon id="XMLID_6_" class="st8" points="-118.9,373.2 -118.9,397.1 -182.8,397.1 -182.8,271.5 -120.4,271.5 -120.4,295.4 
		-160.3,295.4 -160.3,320.6 -126.4,320.6 -126.4,344.3 -160.3,344.3 -160.3,373.2 	"/>
	<path id="XMLID_2_" class="st8" d="M-24.7,347.8c-0.9-3.3-2.2-6.1-3.8-8.6c-1.6-2.4-3.5-4.5-5.7-6.1c-2.1-1.6-4.5-2.8-7-3.6v-0.8
		c2-0.9,3.8-2.3,5.4-4.2c1.6-1.9,2.9-4.1,4.1-6.6c1.1-2.4,2-5.1,2.6-7.9s0.9-5.6,0.9-8.5c0-6-0.9-11-2.8-15s-4.5-7.2-7.8-9.6
		s-7.2-4.1-11.6-5.1s-9.3-1.4-14.4-1.4H-99V355l0.1,0.1l-0.1,0.1v40.7h37c5.4,0,10.4-0.7,15.1-2.2s8.8-3.7,12.3-6.7
		s6.3-6.8,8.3-11.5c2-4.6,3-10.1,3-16.6C-23.3,354.9-23.8,351.1-24.7,347.8z M-76.5,292.5h10.7c5.3,0,9.2,1,11.8,3.1
		s3.8,5.5,3.8,10.4c0,4.5-1.2,8.1-3.7,10.8c-2.5,2.7-6.5,4-12,4h-10.5L-76.5,292.5L-76.5,292.5z M-45.3,357.2
		c0,11.3-6.2,16.9-18.5,16.9h-12.7v-32.4h12.7c0.3,0,0.6,0,0.9,0c5.8,0.1,10.1,1.3,13,3.5c2.5,1.9,4,4.9,4.4,9l1.3,0.9l-1.2,0.8
		C-45.3,356.4-45.3,356.8-45.3,357.2z"/>
</g>
<g id="Code">
	<path id="blue-animate-2" class="st9" d="M-302.5,379.4l-31.6-22.7c-2.8-2-2.8-5.6,0-7.6l24.6-17.7L-302.5,379.4z"/>
	<path id="blue-animate-1" class="st9" d="M-196.3,254.6l-0.1,34.7l-5.7,4.1l-22.9,16.5l-14.2,10.1l-16.2,11.7l-7.7,5.5l-18.7,13.4
		l-3.1,2.2l2.5,1.8c-0.6,4.3-1.3,8.6-2,13h-0.6c-0.6-6.7-1.3-13.3-2-19.9s-1.4-13.2-2-19.7l-1.2-10.6l15.8-11.4l28.7-20.7l44.9-32.3
		C-198.9,251.7-196.2,252.7-196.3,254.6z"/>
	<path id="blue-animate-3" class="st9" d="M-205.4,449.2l-75.7-54.5h8.7l4.8-29.6l20.4,14.7l20.7,14.9l30.1,21.7v29.4
		C-196.3,449.7-201.8,451.8-205.4,449.2z"/>
	<path id="blue-animate-4" class="st9" d="M-165.8,269.2h-18.3c-0.4,0-0.7,0.2-0.7,0.6v23.8l-3.1-2.2c-0.9-0.6-1.4-1.6-1.4-2.6
		l-0.1-34c0-1.5,2.1-2.3,3.5-1.3l20.5,14.8C-164.9,268.5-165.2,269.2-165.8,269.2z"/>
	<polygon id="blue-animate-5" class="st9" points="-101,314.5 -101,353.8 -128.4,334.1 -150.4,318.3 -162.3,309.7 -162.3,293.1 
		-130.8,293.1 	"/>
	<path id="blue-animate-7" class="st9" d="M-101,354v39.3l-79.2,57c-3.6,2.6-9.1,0.5-9.1-3.4v-28.1c0-0.8,0.4-1.6,1.2-2.1l30.5-21.9
		h36.8v-23.9h-3.6L-101,354z"/>
	<path id="blue-animate-6" class="st9" d="M-47.4,353.1c0.6,0.4,0.6,1.2,0,1.7l0,0l-24.7,17.8c-0.2,0.2-0.6,0.3-0.9,0.3h-4.2
		c-0.7,0-1.3-0.5-1.3-1.1v-30.1c0-0.6,0.6-1.1,1.3-1.1h11.3c0.1,0,0.3,0,0.4,0c0.3,0,0.6,0.1,0.9,0.3L-47.4,353.1L-47.4,353.1z"/>
</g>
</svg>
