<?xml version="1.0" encoding="utf-8"?>
<!-- Generator: Adobe Illustrator 19.0.0, SVG Export Plug-In . SVG Version: 6.00 Build 0)  -->
<svg version="1.1" id="Layer_1" xmlns="http://www.w3.org/2000/svg" xmlns:xlink="http://www.w3.org/1999/xlink" x="0px" y="0px"
	 viewBox="-432 135 500 500" style="enable-background:new -432 135 500 500;" xml:space="preserve">
<style type="text/css">
	.st0{enable-background:new    ;}
	.st1{fill:#939393;}
	.st2{fill:#949494;}
	.st3{fill:#959595;}
	.st4{fill:#969696;}
	.st5{fill:#979797;}
	.st6{fill:#A4A4A4;}
	.st7{fill:#A5A5A5;}
	.st8{fill:#A6A6A6;}
	.st9{fill:#A7A7A7;}
	.st10{fill:#A8A8A8;}
	.st11{fill:#A9A9A9;}
	.st12{fill:#AAAAAA;}
	.st13{fill:#ABABAB;}
	.st14{fill:#ACACAC;}
	.st15{fill:#ADADAD;}
	.st16{fill:#AEAEAE;}
	.st17{fill:#AFAFAF;}
	.st18{fill:#808080;}
	.st19{fill:#DCDCDC;}
	.st20{clip-path:url(#SVGID_2_);enable-background:new    ;}
	.st21{fill:#4C4D4D;}
	.st22{fill:#4B4C4C;}
	.st23{fill:#4A4B4B;}
	.st24{clip-path:url(#SVGID_4_);enable-background:new    ;}
	.st25{fill:#454646;}
	.st26{fill:#464747;}
	.st27{fill:#474848;}
	.st28{fill:#484949;}
	.st29{fill:#494A4A;}
	.st30{fill:#444545;}
	.st31{fill:#4E4F4F;}
	.st32{fill:#575858;}
	.st33{fill:#173D6E;}
	.st34{fill:#24508A;}
	.st35{fill:#2B5FA1;}
	.st36{fill:#4D4B4A;}
	.st37{fill:#747170;}
	.st38{fill:#403F3E;}
	.st39{fill:#6182C0;}
	.st40{fill:#8A9ECE;}
	.st41{fill:#5078BB;}
	.st42{clip-path:url(#SVGID_6_);enable-background:new    ;}
	.st43{fill:#858585;}
	.st44{clip-path:url(#SVGID_8_);enable-background:new    ;}
	.st45{fill:#999999;}
	.st46{fill:#9E9E9E;}
	.st47{fill:#A3A3A3;}
	.st48{fill:#B3B3B3;}
	.st49{fill:#B8B8B8;}
	.st50{fill:#C5C5C5;}
	.st51{fill:#898989;}
	.st52{clip-path:url(#SVGID_10_);enable-background:new    ;}
	.st53{fill:#8F8F8F;}
	.st54{fill:#8A8A8A;}
	.st55{fill:#828282;}
	.st56{fill:#B4B4B4;}
	.st57{fill:#DFDFDF;}
</style>
<g id="Platform">
	<g id="XMLID_4_">
		<g id="XMLID_19_">
			<g id="XMLID_25_" class="st0">
				<g id="XMLID_430_" class="st0">
					<polyline id="XMLID_620_" class="st1" points="-37.6,405.3 -37.7,446.1 -37.7,446.1 -37.6,405.3 -37.6,405.3 					"/>
					<path id="XMLID_619_" class="st2" d="M-37.6,405.3l-0.1,40.8c0,0.2,0,0.5,0,0.7l0.1-40.8C-37.6,405.8-37.6,405.6-37.6,405.3"/>
					<path id="XMLID_618_" class="st2" d="M-37.6,406l-0.1,40.8c0,0.2,0,0.5,0,0.7l0.1-40.8C-37.6,406.5-37.6,406.3-37.6,406"/>
					<path id="XMLID_617_" class="st2" d="M-37.6,406.8l-0.1,40.8c0,0.2,0,0.5,0,0.7l0.1-40.8C-37.6,407.3-37.6,407-37.6,406.8"/>
					<path id="XMLID_616_" class="st3" d="M-37.7,407.5l-0.1,40.8c0,0.2,0,0.5,0,0.7l0.1-40.8C-37.7,408-37.7,407.8-37.7,407.5"/>
					<path id="XMLID_615_" class="st3" d="M-37.7,408.3l-0.1,40.8c0,0.2,0,0.5-0.1,0.7l0.1-40.8C-37.7,408.8-37.7,408.5-37.7,408.3"
						/>
					<path id="XMLID_614_" class="st4" d="M-37.7,409l-0.1,40.8c0,0.2,0,0.5-0.1,0.7l0.1-40.8C-37.8,409.5-37.8,409.3-37.7,409"/>
					<path id="XMLID_613_" class="st4" d="M-37.8,409.7l-0.1,40.8c0,0.2,0,0.5-0.1,0.7l0.1-40.8C-37.9,410.2-37.8,410-37.8,409.7"/>
					<path id="XMLID_612_" class="st5" d="M-37.9,410.5l-0.1,40.8c0,0.2-0.1,0.5-0.1,0.7l0.1-40.8C-37.9,411-37.9,410.7-37.9,410.5"
						/>
					<path id="XMLID_611_" class="st5" d="M-38,411.2l-0.1,40.8c0,0.2-0.1,0.5-0.1,0.7l0.1-40.8C-38,411.7-38,411.5-38,411.2"/>
					<path id="XMLID_582_" class="st6" d="M-45.3,432.2l-0.1,40.8c-0.1,0.3-0.3,0.5-0.4,0.7l0.1-40.8
						C-45.5,432.7-45.4,432.5-45.3,432.2"/>
					<path id="XMLID_581_" class="st7" d="M-45.7,433l-0.1,40.8c-0.1,0.2-0.3,0.5-0.5,0.7l0.1-40.8C-46,433.5-45.8,433.2-45.7,433"
						/>
					<path id="XMLID_580_" class="st7" d="M-46.2,433.7l-0.1,40.8c-0.2,0.2-0.3,0.5-0.5,0.7l0.1-40.8
						C-46.5,434.2-46.3,434-46.2,433.7"/>
					<path id="XMLID_579_" class="st7" d="M-46.6,434.5l-0.1,40.8c-0.2,0.2-0.3,0.5-0.5,0.7l0.1-40.8
						C-46.9,435-46.8,434.7-46.6,434.5"/>
					<path id="XMLID_578_" class="st8" d="M-47.1,435.2l-0.1,40.8c-0.2,0.2-0.3,0.5-0.5,0.7l0.1-40.8
						C-47.4,435.7-47.3,435.5-47.1,435.2"/>
					<path id="XMLID_577_" class="st8" d="M-47.6,436l-0.1,40.8c-0.2,0.2-0.3,0.5-0.5,0.7l0.1-40.8C-47.9,436.4-47.8,436.2-47.6,436
						"/>
					<path id="XMLID_576_" class="st9" d="M-48.1,436.7l-0.1,40.8c-0.2,0.3-0.4,0.5-0.6,0.8l0.1-40.8
						C-48.5,437.2-48.3,437-48.1,436.7"/>
					<path id="XMLID_575_" class="st9" d="M-48.7,437.5l-0.1,40.8c-0.2,0.3-0.4,0.5-0.6,0.8l0.1-40.8C-49,438-48.8,437.8-48.7,437.5
						"/>
					<path id="XMLID_574_" class="st10" d="M-49.2,438.3l-0.1,40.8c-0.2,0.3-0.4,0.5-0.6,0.8l0.1-40.8
						C-49.6,438.8-49.4,438.5-49.2,438.3"/>
					<path id="XMLID_573_" class="st10" d="M-49.8,439.1l-0.1,40.8c-0.2,0.3-0.4,0.5-0.6,0.8l0.1-40.8
						C-50.2,439.6-50,439.3-49.8,439.1"/>
					<path id="XMLID_572_" class="st11" d="M-50.4,439.9l-0.1,40.8c-0.2,0.3-0.4,0.5-0.6,0.8l0.1-40.8
						C-50.8,440.4-50.6,440.1-50.4,439.9"/>
					<path id="XMLID_571_" class="st11" d="M-51.1,440.6l-0.1,40.8c-0.2,0.3-0.4,0.5-0.6,0.8l0.1-40.8
						C-51.5,441.2-51.3,440.9-51.1,440.6"/>
					<path id="XMLID_570_" class="st11" d="M-51.7,441.4l-0.1,40.8c-0.2,0.3-0.4,0.5-0.6,0.8l0.1-40.8
						C-52.1,441.9-51.9,441.7-51.7,441.4"/>
					<path id="XMLID_569_" class="st12" d="M-52.3,442.2l-0.1,40.8c-0.2,0.3-0.5,0.5-0.7,0.8L-53,443
						C-52.8,442.7-52.6,442.5-52.3,442.2"/>
					<path id="XMLID_568_" class="st12" d="M-53,443l-0.1,40.8c-0.3,0.3-0.5,0.6-0.8,0.9l0.1-40.8C-53.5,443.6-53.3,443.3-53,443"/>
					<path id="XMLID_567_" class="st13" d="M-53.8,443.9l-0.1,40.8c-0.3,0.3-0.5,0.6-0.8,0.9l0.1-40.8
						C-54.3,444.5-54,444.2-53.8,443.9"/>
					<path id="XMLID_566_" class="st13" d="M-54.6,444.8l-0.1,40.8c-0.3,0.3-0.5,0.6-0.8,0.9l0.1-40.8
						C-55.1,445.3-54.8,445-54.6,444.8"/>
					<path id="XMLID_565_" class="st14" d="M-55.4,445.6l-0.1,40.8c-0.3,0.3-0.5,0.6-0.8,0.9l0.1-40.8
						C-55.9,446.2-55.6,445.9-55.4,445.6"/>
					<path id="XMLID_564_" class="st14" d="M-56.2,446.5l-0.1,40.8c-0.3,0.3-0.6,0.6-0.8,0.9l0.1-40.8
						C-56.7,447-56.5,446.8-56.2,446.5"/>
					<path id="XMLID_563_" class="st15" d="M-57,447.3l-0.1,40.8c-0.3,0.3-0.6,0.6-0.9,0.8l0.1-40.8
						C-57.6,447.9-57.3,447.6-57,447.3"/>
					<path id="XMLID_562_" class="st15" d="M-57.9,448.2L-58,489c-0.3,0.3-0.6,0.6-1,0.9l0.1-40.8
						C-58.5,448.8-58.2,448.5-57.9,448.2"/>
					<path id="XMLID_561_" class="st15" d="M-58.8,449.1l-0.1,40.8c-0.3,0.3-0.7,0.7-1.1,1l0.1-40.8
						C-59.5,449.7-59.2,449.4-58.8,449.1"/>
					<path id="XMLID_560_" class="st16" d="M-59.9,450.1l-0.1,40.8c-0.4,0.3-0.7,0.7-1.1,1l0.1-40.8
						C-60.6,450.7-60.3,450.4-59.9,450.1"/>
					<path id="XMLID_559_" class="st16" d="M-61,451.1l-0.1,40.8c-0.4,0.3-0.7,0.7-1.1,1l0.1-40.8C-61.7,451.7-61.4,451.4-61,451.1"
						/>
					<path id="XMLID_558_" class="st17" d="M-62.1,452l-0.1,40.8c-0.4,0.3-0.8,0.6-1.1,1l0.1-40.8C-62.9,452.7-62.5,452.4-62.1,452"
						/>
					<path class="st18" d="M-38.1,412L-38.1,412C-38.1,412-38.1,412-38.1,412c0,0.2-0.1,0.4-0.1,0.6c0,0,0,0,0,0c0,0,0,0,0,0
						c-0.1,0.8-0.2,1.5-0.4,2.3l0-0.1c0,0,0,0.1,0,0.1c-0.1,0.4-0.2,0.7-0.2,1.1c0,0.1,0,0.1-0.1,0.2c0,0,0,0.1,0,0.1
						c-0.4,1.6-0.8,3.3-1.4,4.9l0,0c0,0.1,0,0.1,0,0.1c-0.1,0.4-0.3,0.8-0.4,1.1c0,0,0,0.1-0.1,0.1l0,0c0,0.1-0.1,0.2-0.1,0.2
						c-0.1,0.2-0.1,0.3-0.2,0.5l0,0.1c-0.5,1.2-1,2.4-1.5,3.6v0c0,0,0,0.1-0.1,0.2c-0.2,0.4-0.3,0.7-0.5,1c0,0.1-0.1,0.1-0.1,0.2
						l0,0.1c-0.1,0.2-0.1,0.3-0.2,0.5c-0.1,0.1-0.1,0.2-0.2,0.3l0,0.1c-4.3,8.4-10.9,16.5-19.9,23.9c-0.1,0.1-0.3,0.2-0.4,0.4
						c-0.2,0.2-0.5,0.4-0.7,0.6c-0.4,0.3-0.7,0.5-1.1,0.8c-0.1,0.1-0.1,0.1-0.2,0.2c-0.5,0.4-1,0.7-1.5,1.1c-0.5,0.4-1,0.8-1.6,1.2
						c-0.3,0.2-0.6,0.4-0.9,0.7c-0.8,0.6-1.7,1.2-2.5,1.8l0,0c-0.9,0.6-1.7,1.1-2.5,1.6l0,0.1c-0.2,0.1-0.4,0.3-0.6,0.4
						c-0.6,0.4-1.3,0.8-1.9,1.2c-0.7,0.5-1.5,0.9-2.3,1.4c-0.1,0.1-0.2,0.1-0.3,0.2l0,0c0,0-0.1,0.1-0.1,0.1c0,0,0,0-0.1,0v0
						c0,0-0.1,0-0.1,0.1l0-0.1c-1.6,1-3.4,1.9-5.2,2.8l0,0.1c-0.6,0.3-1.3,0.6-1.9,1c-3.8,1.9-7.7,3.7-11.7,5.3c0,0-0.1,0-0.1,0.1
						c-1.5,0.6-3.1,1.2-4.7,1.8v0l0,0v0c-0.3,0.1-0.5,0.2-0.8,0.3c-1,0.4-2.1,0.8-3.1,1.1c-0.6,0.2-1.1,0.4-1.7,0.6v0
						c-2,0.7-4.1,1.4-6.2,2c-0.4,0.1-0.7,0.2-1.1,0.3v0c-0.6,0.2-1.2,0.4-1.8,0.5c-0.3,0.1-0.6,0.2-1,0.2c-0.2,0.1-0.5,0.2-0.7,0.2
						c-0.4,0.1-0.8,0.2-1.2,0.3c-0.2,0-0.4,0.1-0.6,0.1c-0.3,0.1-0.6,0.2-0.9,0.3c-1.2,0.3-2.5,0.6-3.7,0.9c-0.1,0-0.3,0.1-0.4,0.1
						c-0.1,0-0.2,0.1-0.3,0.1c-0.5,0.1-1.1,0.2-1.6,0.4c-0.1,0-0.2,0-0.3,0.1v0h0v0c-0.7,0.2-1.4,0.3-2,0.4l0,0.1
						c-1.4,0.3-2.7,0.6-4.1,0.9l0,0c-0.1,0-0.3,0.1-0.4,0.1c-0.4,0.1-0.8,0.2-1.2,0.2c-0.1,0-0.2,0-0.4,0.1c-0.1,0-0.2,0-0.3,0.1
						c-2.8,0.5-5.6,1-8.5,1.4v0c-0.1,0-0.2,0-0.3,0.1c-1.6,0.2-3.1,0.5-4.7,0.7v0c-0.4,0.1-0.7,0.1-1.1,0.1c-1.7,0.2-3.4,0.4-5,0.6
						l0,0c-0.2,0-0.3,0-0.5,0.1c-0.7,0.1-1.4,0.1-2.1,0.2c-0.1,0-0.3,0-0.4,0v0c0,0-0.1,0-0.1,0l0,0c-0.5,0.1-0.9,0.1-1.4,0.1l0,0.1
						c-0.2,0-0.5,0-0.7,0.1c0,0,0,0-0.1,0c-2.6,0.2-5.1,0.4-7.7,0.5l0,0c-0.1,0-0.1,0-0.2,0c-1.4,0.1-2.8,0.1-4.2,0.2
						c-0.3,0-0.7,0-1,0c-0.2,0-0.4,0-0.5,0.1c-0.1,0-0.2,0-0.3,0c-0.2,0-0.3,0-0.5-0.1l0,0.1c-0.8,0-1.6,0-2.4,0c-0.1,0-0.2,0-0.3,0
						v0c-0.4,0-0.9,0-1.3,0l0,0l0,0c-0.5,0-0.9,0-1.3,0l0,0c0,0-0.1,0-0.1,0l0,0c-0.4,0-0.8,0-1.3,0l0,0l0,0c-0.4,0-0.8,0-1.3,0l0,0
						l0,0c-0.4,0-0.7,0-1.2,0v0c-0.2,0-0.3,0-0.4,0c-2.7,0-5.4-0.1-8.1-0.2c-0.1,0-0.3,0-0.4-0.1l0,0c-0.2,0-0.4,0-0.6,0
						c0,0,0,0,0,0c-0.3,0-0.6,0-0.9,0c-0.3,0-0.6-0.1-1-0.1l0,0l0,0c-0.1,0-0.2,0-0.3,0c-0.2,0-0.3,0-0.5,0c-0.1,0-0.3,0-0.4-0.1
						l0,0l0,0c-0.4,0-0.8,0-1.2-0.1l0,0c-0.6,0-1.2-0.1-1.8-0.1c0,0-0.1,0-0.1,0c-1.8-0.1-3.7-0.3-5.5-0.5l0,0c-0.1,0-0.2,0-0.3,0
						c-0.3,0-0.6-0.1-0.9-0.1c0,0,0,0-0.1,0v0c-0.6-0.1-1.1-0.1-1.7-0.2c-0.1,0-0.2,0-0.4,0c-0.9-0.1-1.7-0.2-2.6-0.3
						c-0.1,0-0.2-0.1-0.4-0.1l0,0c-0.7-0.1-1.3-0.2-2-0.3c-0.2,0-0.3,0-0.5-0.1c-0.4,0-0.8-0.1-1.3-0.2l0,0.1
						c-0.2,0-0.4-0.1-0.6-0.1c0,0-0.1,0-0.1,0c-1.9-0.3-3.8-0.6-5.7-0.9c-0.1,0-0.2,0-0.3,0c-0.5-0.1-0.9-0.2-1.4-0.2c0,0,0,0-0.1,0
						c-0.6-0.1-1.3-0.2-1.9-0.3v0c0,0-0.1,0-0.1,0c-0.6-0.1-1.2-0.2-1.7-0.3c-0.2-0.1-0.5-0.1-0.7-0.2l0,0l0,0c-0.1,0-0.3,0-0.4,0
						c-0.1,0-0.2,0-0.3-0.1c-0.2,0-0.4-0.1-0.6-0.2l0,0.1c-0.5-0.1-1-0.2-1.5-0.3c-0.3-0.1-0.7-0.2-1.1-0.2v0c0,0-0.1,0-0.1,0
						c-0.3-0.1-0.6-0.1-0.9-0.2c-0.1,0-0.2,0-0.3-0.1l0,0c-1.7-0.4-3.5-0.8-5.2-1.2v0c-0.1,0-0.1,0-0.2,0c-0.8-0.2-1.6-0.4-2.5-0.6
						c0,0-0.1,0-0.1,0c-0.4-0.1-0.9-0.2-1.4-0.4l0,0c-0.1,0-0.3-0.1-0.4-0.1c-0.1,0-0.3-0.1-0.4-0.1c-0.6-0.2-1.2-0.3-1.7-0.5
						c0,0-0.1,0-0.1,0c0,0,0,0,0,0c-0.5-0.1-0.9-0.3-1.3-0.4c0,0,0,0,0,0c0,0-0.1,0-0.1,0c-1.4-0.4-2.7-0.8-4.1-1.2
						c-0.1,0-0.2-0.1-0.3-0.1l0,0c-2-0.6-4-1.3-6-2l0,0c-0.5-0.2-1-0.3-1.5-0.5c-2.3-0.8-4.7-1.7-6.9-2.7l0,0
						c-0.4-0.2-0.8-0.3-1.2-0.5c-2.3-1-4.6-2-6.9-3.1l0,0c-0.4-0.1-0.7-0.3-1-0.5c-0.1,0-0.1-0.1-0.2-0.1c-0.3-0.2-0.6-0.3-0.9-0.5
						l0,0c-2.9-1.4-5.7-2.9-8.4-4.5l0-0.1c-0.8-0.4-1.5-0.9-2.2-1.3c-1-0.6-1.9-1.1-2.8-1.7c-0.5-0.3-1-0.6-1.4-0.9
						c-0.3-0.2-0.6-0.4-1-0.6c-0.5-0.3-1-0.7-1.5-1c-0.3-0.2-0.6-0.4-0.9-0.6c-0.5-0.3-1-0.7-1.5-1.1c-0.3-0.2-0.5-0.4-0.8-0.5
						c-0.5-0.4-1-0.7-1.5-1.1c-0.2-0.2-0.4-0.3-0.6-0.5c-0.5-0.4-1-0.8-1.5-1.2c-0.2-0.1-0.4-0.3-0.5-0.4c-0.5-0.4-1-0.9-1.6-1.3
						c-0.1-0.1-0.3-0.2-0.4-0.3c-0.5-0.5-1.1-0.9-1.6-1.4c-0.1-0.1-0.2-0.2-0.3-0.3c-0.6-0.5-1.1-1-1.6-1.5c-0.1,0-0.1-0.1-0.2-0.1
						c-7.2-6.8-12.5-14-16.1-21.4c0,0,0,0,0,0c-0.3-0.6-0.5-1.2-0.8-1.8c0-0.1-0.1-0.1-0.1-0.2c-0.2-0.5-0.5-1.1-0.7-1.6
						c0-0.1-0.1-0.2-0.1-0.3c-0.2-0.5-0.4-1-0.6-1.5c-0.1-0.2-0.1-0.3-0.2-0.5c-0.2-0.5-0.3-0.9-0.5-1.4c-0.1-0.2-0.1-0.4-0.2-0.6
						c-0.1-0.4-0.3-0.9-0.4-1.3c-0.1-0.2-0.1-0.5-0.2-0.7c-0.1-0.4-0.2-0.8-0.3-1.2c-0.1-0.3-0.1-0.5-0.2-0.8
						c-0.1-0.4-0.2-0.7-0.2-1.1c-0.1-0.3-0.1-0.6-0.2-0.9c-0.1-0.3-0.1-0.7-0.2-1c-0.1-0.4-0.1-0.7-0.2-1.1c0-0.3-0.1-0.6-0.1-0.9
						c0-0.4-0.1-0.8-0.1-1.2c0-0.3-0.1-0.5-0.1-0.8c0-0.5-0.1-0.9-0.1-1.4c0-0.2,0-0.4,0-0.6c0-0.7,0-1.3,0-2l-0.1,40.8c0,0,0,0,0,0
						c0,0.6,0,1.3,0,1.9c0,0.2,0,0.4,0,0.6c0,0.5,0,0.9,0.1,1.4c0,0.3,0,0.5,0.1,0.8c0,0.4,0.1,0.8,0.1,1.2c0,0.3,0.1,0.6,0.1,0.9
						c0,0.4,0.1,0.7,0.2,1.1c0.1,0.3,0.1,0.7,0.2,1c0.1,0.3,0.1,0.6,0.2,0.9c0.1,0.4,0.2,0.7,0.2,1.1c0.1,0.3,0.1,0.5,0.2,0.8
						c0.1,0.4,0.2,0.8,0.3,1.2c0.1,0.2,0.1,0.5,0.2,0.7c0.1,0.4,0.2,0.9,0.4,1.3c0.1,0.2,0.1,0.4,0.2,0.6c0.1,0.5,0.3,0.9,0.5,1.4
						c0.1,0.2,0.1,0.3,0.2,0.5c0.2,0.5,0.4,1,0.6,1.5c0,0.1,0.1,0.2,0.1,0.3c0.2,0.5,0.4,1.1,0.7,1.6c0,0.1,0.1,0.1,0.1,0.2
						c3.5,8.1,9.2,15.9,16.9,23.2c0.1,0,0.1,0.1,0.2,0.1c0.5,0.5,1.1,1,1.6,1.5c0.1,0.1,0.2,0.2,0.3,0.3c0.5,0.5,1,0.9,1.6,1.4
						c0.1,0.1,0.3,0.2,0.4,0.4c0.5,0.4,1,0.9,1.6,1.3c0.2,0.1,0.4,0.3,0.5,0.4c0.5,0.4,1,0.8,1.5,1.2c0.2,0.2,0.4,0.3,0.6,0.5
						c0.5,0.4,1,0.8,1.5,1.1c0.2,0.2,0.5,0.4,0.8,0.5c0.5,0.4,1,0.7,1.5,1.1c0.3,0.2,0.6,0.4,0.9,0.6c0.5,0.3,1,0.7,1.5,1
						c0.3,0.2,0.6,0.4,1,0.6c0.5,0.3,1,0.6,1.4,0.9c0.1,0,0.1,0.1,0.1,0.1c0.6,0.4,1.1,0.7,1.7,1.1c0.2,0.1,0.3,0.2,0.5,0.3
						c0.9,0.5,1.7,1.1,2.6,1.6c0,0,0.1,0,0.1,0.1l0,0c0.9,0.5,1.8,1,2.7,1.5l0,0l0,0l0,0c0.9,0.5,1.9,1,2.8,1.5
						c0.9,0.4,1.8,0.9,2.8,1.4l0,0c0.7,0.4,1.5,0.7,2.2,1l0,0.1c0.6,0.3,1.2,0.6,1.9,0.9l0,0c0.7,0.3,1.4,0.6,2.1,0.9v0
						c0.7,0.3,1.4,0.6,2.1,0.9c0.1,0.1,0.2,0.1,0.3,0.1c0.5,0.2,1,0.4,1.6,0.6l0,0c0.6,0.3,1.1,0.5,1.7,0.7c0.6,0.3,1.1,0.5,1.7,0.7
						c0.6,0.2,1.1,0.4,1.7,0.6v0c0.4,0.1,0.7,0.2,1,0.4c0.8,0.3,1.6,0.6,2.4,0.9l0,0.1c0.5,0.1,1,0.3,1.5,0.5l0,0
						c0.5,0.2,1,0.3,1.5,0.5l0,0l0,0l0,0c0.5,0.2,1,0.3,1.5,0.5l0,0l0,0l0,0c0.5,0.2,1,0.3,1.5,0.5l0-0.1c0.5,0.2,1,0.3,1.5,0.5
						c0.5,0.2,1,0.4,1.5,0.5c0.5,0.1,0.9,0.3,1.4,0.4c0.5,0.1,1,0.3,1.5,0.4c0.4,0.1,0.8,0.3,1.3,0.4c0.5,0.2,0.9,0.3,1.4,0.4l0,0
						c0.2,0,0.3,0.1,0.5,0.1c0.2,0.1,0.4,0.1,0.6,0.1c0.1,0,0.2,0,0.3,0.1c0.5,0.2,0.9,0.3,1.3,0.4l0,0l0,0c0.4,0.1,0.8,0.2,1.2,0.3
						c0,0,0.1,0,0.1,0l0,0.1c0.5,0.1,0.9,0.2,1.4,0.3s0.9,0.2,1.4,0.3l0,0l0,0c0.4,0.1,0.9,0.2,1.3,0.3s0.9,0.2,1.3,0.3l0-0.1
						c0.7,0.2,1.4,0.3,2.1,0.4c0.2,0,0.3,0.1,0.4,0.1c0.4,0.1,0.9,0.2,1.3,0.3l0,0c0.6,0.1,1.2,0.2,1.9,0.4c0.3,0.1,0.5,0.1,0.7,0.2
						c0.1,0,0.2,0,0.4,0c0.3,0.1,0.6,0.1,0.9,0.2l0,0.1c0.5,0,0.9,0.1,1.3,0.2c0.4,0.1,0.8,0.1,1.2,0.2l0,0c0,0,0.1,0,0.1,0v0
						c0.1,0,0.2,0,0.3,0c0.1,0,0.3,0,0.4,0.1c0.2,0,0.4,0,0.5,0.1v0c0.4,0.1,0.8,0.1,1.2,0.2c0.5,0.1,0.8,0.1,1.2,0.2l0,0
						c0.5,0.1,0.9,0.1,1.3,0.2c0.5,0.1,0.8,0.1,1.2,0.2l0,0c0.5,0.1,0.9,0.1,1.3,0.2l0,0c0.6,0.1,1.2,0.1,1.8,0.2
						c0.2,0,0.5,0.1,0.7,0.1l0,0c0,0,0.1,0,0.1,0l0,0c0.4,0.1,0.8,0.1,1.2,0.2l0-0.1c0.1,0,0.2,0,0.4,0c0.3,0.1,0.6,0.1,0.8,0.1v0
						c0,0,0,0,0,0l0,0.1c0.4,0,0.8,0.1,1.2,0.1l0-0.1c0,0,0.1,0,0.1,0l0,0c0.4,0,0.8,0.1,1.2,0.1l0,0l0,0c0.4,0,0.8,0.1,1.2,0.1v0
						c0.4,0,0.9,0.1,1.3,0.1l0,0.1c0.4,0,0.8,0.1,1.2,0.1l0-0.1c0,0,0.1,0,0.1,0l0,0c0.4,0,0.8,0.1,1.2,0.1l0,0l0,0
						c0.4,0,0.8,0.1,1.2,0.1c0.4,0,0.8,0.1,1.2,0.1l0,0c0,0,0.1,0,0.1,0l0,0c0.4,0,0.8,0.1,1.2,0.1l0,0l0,0c0.4,0,0.8,0.1,1.2,0.1
						l0-0.1c0.6,0,1.1,0.1,1.7,0.1c0.2,0,0.3,0,0.5,0c0.2,0,0.4,0,0.6,0c0.3,0,0.7,0.1,0.9,0.1v0c0.5,0.1,0.9,0.1,1.3,0.1l0-0.1
						c0.1,0,0.3,0,0.4,0c0.3,0,0.6,0,0.9,0c0.4,0.1,0.9,0.1,1.3,0.1c0.4,0,0.8,0,1.2,0l0,0.1c0.4,0,0.9,0,1.3,0s0.9,0,1.3,0
						c0.4,0,0.9,0,1.3,0c0.3,0,0.6,0,0.9,0c2.4,0,4.8,0,7.2,0c0.3,0,0.7,0,1,0l0,0c0,0,0.1,0,0.1,0l0,0c0.4,0,0.9,0,1.3,0l0,0
						c0.8,0,1.5,0,2.3-0.1c0.1,0,0.2,0,0.3,0c0.4,0,0.9,0,1.3,0l0-0.1c0,0,0.1,0,0.1,0l0,0.1c0.4-0.1,0.9-0.1,1.3-0.1l0,0
						c0,0,0,0,0,0l0,0c0.1,0,0.2,0,0.3,0c0.4,0,0.7,0,1.1,0l0,0.1c0.5,0,0.9-0.1,1.4-0.1v0c0.5,0,0.9-0.1,1.4-0.1s0.9-0.1,1.4-0.1
						l0,0c0,0,0.1,0,0.1,0l0,0c0.5,0,0.9-0.1,1.4-0.1s0.9-0.1,1.4-0.1l0,0c0,0,0,0,0,0l0,0c0.5,0,0.9-0.1,1.4-0.1l0,0
						c0.6-0.1,1.2-0.1,1.8-0.2c0.4,0,0.8-0.1,1.2-0.1l0,0l0,0c0.3-0.1,0.7-0.1,1-0.1c0.2,0,0.3,0,0.5,0l0,0.1c0.5-0.1,1-0.1,1.5-0.2
						l0,0c0,0,0.1,0,0.1,0l0,0c0.5-0.1,1-0.1,1.5-0.2l0,0l0,0c0.5-0.1,1-0.1,1.5-0.2c0.1,0,0.3,0,0.4-0.1c0.4,0,0.8-0.1,1.2-0.2l0,0
						c0.5-0.1,1-0.1,1.5-0.2c0.5,0,1.1-0.1,1.7-0.2c0.5-0.1,1-0.2,1.6-0.3c0,0,0.1,0,0.1,0l0,0.1c0.6-0.1,1.1-0.2,1.7-0.3l0-0.1
						c0,0,0.1,0,0.1,0l0,0.1c0.6-0.1,1.1-0.2,1.7-0.3c0.6-0.1,1.1-0.2,1.7-0.3c0.6-0.1,1.1-0.2,1.7-0.3c0.2-0.1,0.4-0.1,0.6-0.2
						c1.1-0.2,2.3-0.4,3.4-0.7v0c0.7-0.1,1.3-0.3,2-0.4c0.7-0.1,1.3-0.3,2-0.4l0,0c0.3-0.1,0.7-0.1,1-0.2c0,0,0.1,0,0.1,0
						c0.4-0.1,0.9-0.2,1.3-0.3c0.5-0.1,1.1-0.2,1.6-0.4c0.1,0,0.2,0,0.2-0.1c0.9-0.2,1.7-0.4,2.5-0.6c0.2-0.1,0.5-0.1,0.7-0.2
						c1.8-0.5,3.7-1,5.5-1.5c0.6-0.2,1.2-0.3,1.8-0.5v0c0.1,0,0.3-0.1,0.4-0.1c1.1-0.3,2.1-0.6,3.2-1l0,0c0,0,0.1,0,0.1,0l0,0.1
						c1.2-0.4,2.4-0.8,3.6-1.2l0,0c1.9-0.6,3.7-1.3,5.5-2v0l0,0v0c0.1,0,0.2-0.1,0.3-0.1c0.9-0.3,1.8-0.7,2.7-1
						c5.4-2.1,10.6-4.4,15.5-7.1l0,0c1.8-1,3.6-1.9,5.4-3c1-0.6,2.1-1.2,3.1-1.8c0.7-0.4,1.4-0.9,2-1.3l0,0c0.4-0.3,0.8-0.5,1.2-0.8
						c0.1-0.1,0.2-0.1,0.3-0.2c0.3-0.2,0.6-0.4,0.9-0.6l0,0.1c0.6-0.5,1.2-0.9,1.8-1.3c0.2-0.2,0.5-0.4,0.8-0.6
						c1.1-0.8,2.1-1.5,3.1-2.3c0.1-0.1,0.2-0.2,0.4-0.3c0.2-0.1,0.4-0.3,0.6-0.4c0.5-0.3,0.9-0.7,1.4-1.1c0.1-0.1,0.2-0.2,0.3-0.3
						c0.2-0.2,0.4-0.4,0.7-0.5c0.1-0.1,0.1-0.1,0.2-0.2l0,0c7.8-6.5,13.8-13.6,18-20.9l0,0.2c0.1-0.3,0.3-0.5,0.4-0.8
						c0.1-0.3,0.3-0.5,0.4-0.8c0.1-0.2,0.3-0.5,0.4-0.7c0.2-0.2,0.3-0.5,0.4-0.7l0-0.1c0,0,0,0,0-0.1c0.1-0.2,0.2-0.4,0.3-0.5l0,0
						c0-0.1,0.1-0.1,0.1-0.2c0.1-0.2,0.2-0.4,0.3-0.6c0.1-0.2,0.2-0.3,0.2-0.5c0.1-0.1,0.1-0.3,0.2-0.4l0,0.2
						c0.1-0.2,0.2-0.5,0.3-0.7l0-0.2l0,0.2c0.1-0.2,0.2-0.5,0.3-0.7l0-0.1c0.1-0.2,0.2-0.5,0.3-0.7l0-0.1l0,0.1
						c0.1-0.2,0.2-0.5,0.3-0.7c0.1-0.2,0.2-0.5,0.3-0.7l0-0.2c0-0.1,0-0.1,0.1-0.2c0-0.1,0.1-0.2,0.1-0.3l0-0.1
						c0-0.1,0.1-0.2,0.1-0.3c0.1-0.2,0.1-0.4,0.2-0.5c0-0.1,0-0.1,0-0.2c0.1-0.3,0.2-0.5,0.3-0.8l0,0.3c0-0.2,0.1-0.5,0.2-0.7
						c0.1-0.2,0.1-0.5,0.2-0.7l0-0.2l0,0.2c0.1-0.2,0.1-0.5,0.2-0.7c0.1-0.2,0.1-0.5,0.2-0.7l0-0.1c0.1-0.2,0.1-0.5,0.2-0.7
						c0.1-0.2,0.1-0.5,0.2-0.7l0-0.2c0.1-0.2,0.1-0.4,0.2-0.7c0-0.2,0.1-0.4,0.1-0.5c0-0.1,0-0.3,0.1-0.4c0.1-0.3,0.1-0.5,0.1-0.8
						l0,0.4c0-0.2,0.1-0.5,0.1-0.7s0.1-0.5,0.1-0.7l0,0l0,0c0-0.1,0-0.1,0-0.2c0.4-2.6,0.7-5.3,0.7-7.9l0.1-40.8
						C-37.6,407.5-37.8,409.8-38.1,412z"/>
				</g>
				<g id="XMLID_35_">
					<path id="XMLID_428_" class="st19" d="M-80.7,345.1c57.2,33,57.5,86.6,0.7,119.6s-149.3,33-206.5,0s-57.5-86.6-0.7-119.6
						S-137.9,312-80.7,345.1z"/>
				</g>
			</g>
		</g>
	</g>
	<g id="XMLID_3_">
		<g id="XMLID_29_">
			<g id="XMLID_75_" class="st0">
				<g id="XMLID_228_" class="st0">
					<g>
						<g>
							<defs>
								<path id="SVGID_1_" d="M-173.2,403.6l4.6,2.5c-1.8-1-4.8-1.7-8.3-1.9l-4.6-2.5C-177.9,402-175,402.6-173.2,403.6z"/>
							</defs>
							<clipPath id="SVGID_2_">
								<use xlink:href="#SVGID_1_"  style="overflow:visible;"/>
							</clipPath>
							<g id="XMLID_229_" class="st20">
								<path id="XMLID_232_" class="st21" d="M-176.9,404.2l-4.6-2.5c2.1,0.1,3.9,0.4,5.5,0.8l4.6,2.5
									C-173,404.6-174.9,404.3-176.9,404.2"/>
								<path id="XMLID_231_" class="st22" d="M-171.5,405l-4.6-2.5c1,0.3,1.8,0.6,2.5,0.9l4.6,2.5
									C-169.6,405.6-170.5,405.3-171.5,405"/>
								<path id="XMLID_230_" class="st23" d="M-168.9,405.9l-4.6-2.5c0.1,0.1,0.2,0.1,0.3,0.2l4.6,2.5
									C-168.7,406-168.8,406-168.9,405.9"/>
							</g>
						</g>
					</g>
				</g>
				<g id="XMLID_201_" class="st0">
					<g>
						<g>
							<defs>
								<path id="SVGID_3_" d="M-208.8,418.6l-4.6-2.5c-1.4-0.8-2.2-1.7-2.2-2.9c0-2.7,4.2-5.7,10.5-7.9l4.6,2.5
									c-6.3,2.3-10.5,5.2-10.5,7.9C-211,416.8-210.2,417.8-208.8,418.6z"/>
							</defs>
							<clipPath id="SVGID_4_">
								<use xlink:href="#SVGID_3_"  style="overflow:visible;"/>
							</clipPath>
							<g id="XMLID_202_" class="st24">
								<path id="XMLID_226_" class="st25" d="M-208.8,418.6l-4.6-2.5c-1.4-0.8-2.2-1.7-2.2-2.9c0-0.3,0.1-0.7,0.2-1l4.6,2.5
									c-0.1,0.3-0.2,0.7-0.2,1C-211,416.8-210.2,417.8-208.8,418.6"/>
								<path id="XMLID_209_" class="st26" d="M-210.8,414.6l-4.6-2.5c0.1-0.2,0.1-0.3,0.2-0.5l4.6,2.5
									C-210.7,414.3-210.7,414.5-210.8,414.6"/>
								<path id="XMLID_208_" class="st27" d="M-210.6,414.1l-4.6-2.5c0.1-0.2,0.2-0.3,0.3-0.5l4.6,2.5
									C-210.4,413.8-210.5,414-210.6,414.1"/>
								<path id="XMLID_207_" class="st28" d="M-210.3,413.6l-4.6-2.5c0.1-0.2,0.3-0.4,0.5-0.6l4.6,2.5
									C-210,413.2-210.1,413.4-210.3,413.6"/>
								<path id="XMLID_206_" class="st29" d="M-209.8,413l-4.6-2.5c0.2-0.2,0.5-0.5,0.7-0.7l4.6,2.5
									C-209.3,412.5-209.6,412.8-209.8,413"/>
								<path id="XMLID_205_" class="st23" d="M-209.1,412.3l-4.6-2.5c0.4-0.4,0.9-0.7,1.4-1.1l4.6,2.5
									C-208.2,411.6-208.6,411.9-209.1,412.3"/>
								<path id="XMLID_204_" class="st22" d="M-207.7,411.2l-4.6-2.5c1-0.7,2.2-1.3,3.5-2l4.6,2.5
									C-205.5,409.9-206.7,410.5-207.7,411.2"/>
								<path id="XMLID_203_" class="st21" d="M-204.2,409.2l-4.6-2.5c1.1-0.5,2.3-1,3.7-1.5l4.6,2.5
									C-201.8,408.2-203,408.7-204.2,409.2"/>
							</g>
						</g>
					</g>
				</g>
				<g id="XMLID_199_">
					<polygon id="XMLID_200_" class="st30" points="-200.5,407.7 -205.1,405.3 -205.1,391.2 -200.6,393.7 					"/>
				</g>
				<g id="XMLID_197_">
					<polygon id="XMLID_198_" class="st30" points="-302,408.8 -306.6,406.3 -307.4,265.6 -302.8,268.1 					"/>
				</g>
				<g id="XMLID_195_">
					<polygon id="XMLID_196_" class="st31" points="-302.8,268.1 -307.4,265.6 -80.9,231.8 -76.3,234.3 					"/>
				</g>
				<g id="XMLID_79_">
					<path id="XMLID_194_" class="st32" d="M-76.3,234.3l0.8,140.7L-177,390.2l0.1,14.1c6.3,0.4,10.5,2.1,10.6,4.8
						c0,4.1-9.9,9-22.3,10.8c-12.6,1.8-22.3-0.1-22.4-4.2c0-2.7,4.2-5.7,10.5-7.9l-0.1-14.1L-302,408.8l-0.8-140.7L-76.3,234.3z"/>
				</g>
			</g>
		</g>
	</g>
	<g id="XMLID_5_">
		<g id="XMLID_21_">
			<g id="XMLID_70_" class="st0">
				<g id="XMLID_99_">
					<polygon id="XMLID_153_" class="st33" points="-293.8,399.2 -296,398 -296.7,272.1 -294.5,273.3 					"/>
				</g>
				<g id="XMLID_95_">
					<polygon id="XMLID_98_" class="st34" points="-294.5,273.3 -296.7,272.1 -85.4,240.6 -83.1,241.8 					"/>
				</g>
				<g id="XMLID_78_">
					<polygon id="XMLID_91_" class="st35" points="-83.1,241.8 -82.4,367.7 -293.8,399.2 -294.5,273.3 					"/>
				</g>
			</g>
		</g>
	</g>
	<g id="XMLID_9_">
		<g id="XMLID_39_">
			<g id="XMLID_56_" class="st0">
				<g id="XMLID_117_">
					<polygon id="XMLID_118_" class="st36" points="-64,427.5 -64,431.6 -137,474 -136.9,469.9 					"/>
				</g>
				<g id="XMLID_113_">
					<polygon id="XMLID_116_" class="st37" points="-136.9,469.9 -137,474 -180.5,448.9 -180.5,444.8 					"/>
				</g>
				<g id="XMLID_81_">
					<polygon id="XMLID_112_" class="st38" points="-64,427.5 -136.9,469.9 -180.5,444.8 -107.5,402.4 					"/>
				</g>
			</g>
		</g>
	</g>
	<g id="XMLID_23_">
		<g id="XMLID_58_">
			<g id="XMLID_93_" class="st0">
				<g id="XMLID_179_">
					<polygon id="XMLID_180_" class="st39" points="-70,425.7 -70,429.8 -131.7,465.7 -131.7,461.6 					"/>
				</g>
				<g id="XMLID_177_">
					<polygon id="XMLID_178_" class="st40" points="-131.7,461.6 -131.7,465.7 -169.5,443.8 -169.5,439.7 					"/>
				</g>
				<g id="XMLID_96_">
					<polygon id="XMLID_176_" class="st41" points="-70,425.7 -131.7,461.6 -169.5,439.7 -107.8,403.9 					"/>
				</g>
			</g>
		</g>
	</g>
	<g id="XMLID_8_">
		<g id="XMLID_38_">
			<g id="XMLID_55_" class="st0">
				<g id="XMLID_265_" class="st0">
					<g>
						<g>
							<defs>
								<path id="SVGID_5_" d="M-161.6,454.6V453c0,0.3,0.2,0.7,0.7,0.9v1.6C-161.4,455.2-161.6,454.9-161.6,454.6z"/>
							</defs>
							<clipPath id="SVGID_6_">
								<use xlink:href="#SVGID_5_"  style="overflow:visible;"/>
							</clipPath>
							<g id="XMLID_266_" class="st42">
								<path id="XMLID_267_" class="st43" d="M-161,453.9v1.6c-0.5-0.3-0.7-0.6-0.7-0.9V453C-161.6,453.3-161.4,453.6-161,453.9"/>
							</g>
						</g>
					</g>
				</g>
				<g id="XMLID_254_" class="st0">
					<g>
						<g>
							<defs>
								<path id="SVGID_7_" d="M-151,455.6v1.6c0,0.3-0.2,0.7-0.7,0.9v-1.6C-151.3,456.3-151,456-151,455.6z"/>
							</defs>
							<clipPath id="SVGID_8_">
								<use xlink:href="#SVGID_7_"  style="overflow:visible;"/>
							</clipPath>
							<g id="XMLID_255_" class="st44">
								<path id="XMLID_263_" class="st2" d="M-151,455.6v1.6l0,0V455.6L-151,455.6"/>
								<path id="XMLID_262_" class="st45" d="M-151,455.7v1.6v0.1v-1.6C-151.1,455.7-151,455.7-151,455.7"/>
								<path id="XMLID_261_" class="st46" d="M-151.1,455.8v1.6v0.1v-1.6V455.8"/>
								<path id="XMLID_260_" class="st47" d="M-151.1,455.9v1.6c0,0,0,0.1-0.1,0.1V456C-151.1,456-151.1,456-151.1,455.9"/>
								<path id="XMLID_259_" class="st10" d="M-151.2,456v1.6l-0.1,0.1v-1.6C-151.2,456.1-151.2,456.1-151.2,456"/>
								<path id="XMLID_258_" class="st15" d="M-151.3,456.2v1.6c0,0.1-0.1,0.1-0.1,0.2v-1.6C-151.3,456.3-151.3,456.2-151.3,456.2"
									/>
								<path id="XMLID_257_" class="st48" d="M-151.4,456.3v1.6c-0.1,0.1-0.2,0.1-0.3,0.2v-1.6
									C-151.6,456.5-151.5,456.4-151.4,456.3"/>
								<path id="XMLID_256_" class="st49" d="M-151.7,456.6v1.6l0,0V456.6L-151.7,456.6"/>
							</g>
						</g>
					</g>
				</g>
				<g id="XMLID_252_">
					<polygon id="XMLID_253_" class="st50" points="-151.7,456.6 -151.7,458.2 -152.4,458.6 -152.4,457 					"/>
				</g>
				<g id="XMLID_250_">
					<polygon id="XMLID_251_" class="st51" points="-155.6,457 -155.6,458.6 -161,455.5 -161,453.9 					"/>
				</g>
				<g id="XMLID_236_" class="st0">
					<g>
						<g>
							<defs>
								<path id="SVGID_9_" d="M-152.4,457v1.6c-0.9,0.5-2.3,0.5-3.2,0V457C-154.7,457.5-153.3,457.5-152.4,457z"/>
							</defs>
							<clipPath id="SVGID_10_">
								<use xlink:href="#SVGID_9_"  style="overflow:visible;"/>
							</clipPath>
							<g id="XMLID_237_" class="st52">
								<path id="XMLID_248_" class="st49" d="M-152.4,457v1.6c-0.2,0.1-0.3,0.2-0.5,0.2v-1.6C-152.7,457.1-152.5,457-152.4,457"/>
								<path id="XMLID_247_" class="st48" d="M-152.9,457.2v1.6c-0.1,0-0.3,0.1-0.4,0.1v-1.6C-153.2,457.3-153,457.2-152.9,457.2"
									/>
								<path id="XMLID_246_" class="st15" d="M-153.3,457.3v1.6c-0.1,0-0.2,0-0.3,0v-1.6C-153.5,457.3-153.4,457.3-153.3,457.3"/>
								<path id="XMLID_245_" class="st10" d="M-153.6,457.3v1.6c-0.1,0-0.2,0-0.3,0v-1.6C-153.8,457.3-153.7,457.3-153.6,457.3"/>
								<path id="XMLID_244_" class="st47" d="M-153.9,457.3v1.6c-0.1,0-0.2,0-0.2,0v-1.6C-154,457.3-154,457.3-153.9,457.3"/>
								<path id="XMLID_243_" class="st46" d="M-154.1,457.3v1.6c-0.1,0-0.2,0-0.2,0v-1.6C-154.3,457.3-154.2,457.3-154.1,457.3"/>
								<path id="XMLID_242_" class="st45" d="M-154.3,457.3v1.6c-0.1,0-0.1,0-0.2,0v-1.6C-154.5,457.3-154.4,457.3-154.3,457.3"/>
								<path id="XMLID_241_" class="st2" d="M-154.6,457.3v1.6c-0.1,0-0.2,0-0.2,0v-1.6C-154.7,457.3-154.6,457.3-154.6,457.3"/>
								<path id="XMLID_240_" class="st53" d="M-154.8,457.3v1.6c-0.1,0-0.2,0-0.2-0.1v-1.6C-154.9,457.2-154.9,457.3-154.8,457.3"
									/>
								<path id="XMLID_239_" class="st54" d="M-155,457.2v1.6c-0.1,0-0.2-0.1-0.3-0.1v-1.6C-155.2,457.2-155.1,457.2-155,457.2"/>
								<path id="XMLID_238_" class="st43" d="M-155.3,457.1v1.6c-0.1,0-0.2-0.1-0.3-0.2v-1.6C-155.5,457-155.4,457.1-155.3,457.1"
									/>
							</g>
						</g>
					</g>
				</g>
				<g id="XMLID_64_">
					<path id="XMLID_235_" class="st19" d="M-151.7,454.7c0.9,0.5,0.9,1.4,0,1.9l-0.7,0.4c-0.9,0.5-2.3,0.5-3.2,0l-5.3-3.1
						c-0.9-0.5-0.9-1.4,0-1.9l0.7-0.4c0.9-0.5,2.3-0.5,3.2,0L-151.7,454.7z"/>
				</g>
			</g>
		</g>
	</g>
</g>
<g id="Desktop">
	<g id="XMLID_14_">
		<g id="XMLID_60_">
			<g id="XMLID_77_" class="st0">
				<g id="XMLID_141_">
					<polygon id="XMLID_147_" class="st55" points="-226,380.6 -230.6,378.1 -230.7,359.7 -226.1,362.2 					"/>
				</g>
				<g id="XMLID_138_">
					<polygon id="XMLID_140_" class="st56" points="-226.1,362.2 -230.7,359.7 -90.8,338.8 -86.3,341.3 					"/>
				</g>
				<g id="XMLID_109_">
					<polygon id="XMLID_136_" class="st57" points="-86.3,341.3 -86.2,359.7 -226,380.6 -226.1,362.2 					"/>
				</g>
			</g>
		</g>
	</g>
	<g id="XMLID_12_">
		<g id="XMLID_62_">
			<g id="XMLID_86_" class="st0">
				<g id="XMLID_161_">
					<polygon id="XMLID_172_" class="st55" points="-280.5,389.7 -285.1,387.2 -285.2,368.8 -280.6,371.2 					"/>
				</g>
				<g id="XMLID_159_">
					<polygon id="XMLID_160_" class="st56" points="-280.6,371.2 -285.2,368.8 -239.2,361.9 -234.6,364.4 					"/>
				</g>
				<g id="XMLID_90_">
					<polygon id="XMLID_148_" class="st57" points="-234.6,364.4 -234.5,382.8 -280.5,389.7 -280.6,371.2 					"/>
				</g>
			</g>
		</g>
	</g>
	<g id="XMLID_10_">
		<g id="XMLID_63_">
			<g id="XMLID_84_" class="st0">
				<g id="XMLID_149_">
					<polygon id="XMLID_150_" class="st55" points="-281.9,364.5 -286.4,362 -286.8,296.4 -282.2,298.9 					"/>
				</g>
				<g id="XMLID_143_">
					<polygon id="XMLID_144_" class="st56" points="-282.2,298.9 -286.8,296.4 -91.2,267.3 -86.7,269.8 					"/>
				</g>
				<g id="XMLID_87_">
					<polygon id="XMLID_142_" class="st57" points="-86.7,269.8 -86.3,335.3 -281.9,364.5 -282.2,298.9 					"/>
				</g>
			</g>
		</g>
	</g>
	<g id="XMLID_7_">
		<g id="XMLID_71_">
			<g id="XMLID_82_" class="st0">
				<g id="XMLID_158_">
					<polygon id="XMLID_162_" class="st55" points="-250.4,287.2 -255,284.7 -255,276.5 -250.5,279 					"/>
				</g>
				<g id="XMLID_156_">
					<polygon id="XMLID_157_" class="st56" points="-250.5,279 -255,276.5 -92.9,252.3 -88.3,254.8 					"/>
				</g>
				<g id="XMLID_85_">
					<polygon id="XMLID_151_" class="st57" points="-88.3,254.8 -88.3,263 -250.4,287.2 -250.5,279 					"/>
				</g>
			</g>
		</g>
	</g>
	<g id="XMLID_2_">
		<g id="XMLID_66_">
			<g id="XMLID_80_" class="st0">
				<g id="XMLID_167_">
					<polygon id="XMLID_168_" class="st55" points="-283,292.1 -287.6,289.6 -287.7,281.4 -283.1,283.9 					"/>
				</g>
				<g id="XMLID_164_">
					<polygon id="XMLID_166_" class="st56" points="-283.1,283.9 -287.7,281.4 -260.8,277.4 -256.3,279.9 					"/>
				</g>
				<g id="XMLID_83_">
					<polygon id="XMLID_163_" class="st57" points="-256.3,279.9 -256.2,288.1 -283,292.1 -283.1,283.9 					"/>
				</g>
			</g>
		</g>
	</g>
</g>
<g id="Layer_3">
	<g id="XMLID_13_">
		<g id="XMLID_51_">
			<g id="XMLID_69_" class="st0">
				<g id="XMLID_145_">
					<polygon id="XMLID_146_" class="st50" points="-98.9,411.5 -98.9,413.1 -102.8,415.4 -102.8,413.8 					"/>
				</g>
				<g id="XMLID_137_">
					<polygon id="XMLID_139_" class="st51" points="-102.8,413.8 -102.8,415.4 -111.4,410.5 -111.4,408.9 					"/>
				</g>
				<g id="XMLID_89_">
					<polygon id="XMLID_135_" class="st19" points="-98.9,411.5 -102.8,413.8 -111.4,408.9 -107.5,406.6 					"/>
				</g>
			</g>
		</g>
	</g>
	<g id="XMLID_18_">
		<g id="XMLID_32_">
			<g id="XMLID_44_" class="st0">
				<g id="XMLID_124_">
					<polygon id="XMLID_125_" class="st50" points="-88.1,418 -88.1,419.6 -92,421.9 -91.9,420.3 					"/>
				</g>
				<g id="XMLID_122_">
					<polygon id="XMLID_123_" class="st51" points="-91.9,420.3 -92,421.9 -100.6,417 -100.6,415.4 					"/>
				</g>
				<g id="XMLID_65_">
					<polygon id="XMLID_114_" class="st19" points="-88.1,418 -91.9,420.3 -100.6,415.4 -96.7,413.1 					"/>
				</g>
			</g>
		</g>
	</g>
	<g id="XMLID_16_">
		<g id="XMLID_36_">
			<g id="XMLID_53_" class="st0">
				<g id="XMLID_107_">
					<polygon id="XMLID_110_" class="st50" points="-77.2,424.5 -77.2,426.2 -81.1,428.4 -81.1,426.8 					"/>
				</g>
				<g id="XMLID_103_">
					<polygon id="XMLID_105_" class="st51" points="-81.1,426.8 -81.1,428.4 -89.7,423.5 -89.7,421.9 					"/>
				</g>
				<g id="XMLID_68_">
					<polygon id="XMLID_102_" class="st19" points="-77.2,424.5 -81.1,426.8 -89.7,421.9 -85.9,419.6 					"/>
				</g>
			</g>
		</g>
	</g>
	<g id="XMLID_17_">
		<g id="XMLID_41_">
			<g id="XMLID_54_" class="st0">
				<g id="XMLID_129_">
					<polygon id="XMLID_130_" class="st50" points="-82.7,428.5 -82.7,430.1 -106.7,444.2 -106.7,442.6 					"/>
				</g>
				<g id="XMLID_127_">
					<polygon id="XMLID_128_" class="st51" points="-106.7,442.6 -106.7,444.2 -137.9,426.5 -137.9,424.9 					"/>
				</g>
				<g id="XMLID_76_">
					<polygon id="XMLID_120_" class="st19" points="-82.7,428.5 -106.7,442.6 -137.9,424.9 -113.9,410.7 					"/>
				</g>
			</g>
		</g>
	</g>
	<g id="XMLID_15_">
		<g id="XMLID_49_">
			<g id="XMLID_88_" class="st0">
				<g id="XMLID_154_">
					<polygon id="XMLID_165_" class="st50" points="-108.1,443.7 -108.1,445.4 -132.1,459.5 -132.1,457.9 					"/>
				</g>
				<g id="XMLID_132_">
					<polygon id="XMLID_133_" class="st51" points="-132.1,457.9 -132.1,459.5 -163.2,441.8 -163.2,440.1 					"/>
				</g>
				<g id="XMLID_94_">
					<polygon id="XMLID_131_" class="st19" points="-108.1,443.7 -132.1,457.9 -163.2,440.1 -139.2,426 					"/>
				</g>
			</g>
		</g>
	</g>
</g>
</svg>
